<svg xmlns="http://www.w3.org/2000/svg" viewBox="0 0 512 512" role="img" aria-labelledby="title">
  <title id="title">比价卡 logo</title>
  <rect width="512" height="512" rx="108" fill="#226c51"/>
  <g transform="rotate(3 256 256)">
    <path d="M151 108h190c19 0 37 8 50 21l43 43c13 13 20 31 20 50v169c0 50-40 90-90 90H151c-50 0-90-40-90-90V198c0-50 40-90 90-90Z" fill="#66bd93" opacity=".9"/>
    <path d="M126 83h202c20 0 38 8 52 22l45 45c14 14 22 33 22 52v168c0 50-41 91-91 91H126c-50 0-91-41-91-91V174c0-50 41-91 91-91Z" fill="#fbfaf6"/>
    <circle cx="346" cy="160" r="25" fill="#226c51"/>
    <path d="M119 257h274" fill="none" stroke="#226c51" stroke-width="18" stroke-linecap="round"/>
    <circle cx="256" cy="257" r="29" fill="#232521"/>
    <path d="M190 230v-76m-40 40 40-40 40 40" fill="none" stroke="#66bd93" stroke-width="24" stroke-linecap="round" stroke-linejoin="round"/>
    <path d="M322 284v76m-40-40 40 40 40-40" fill="none" stroke="#66bd93" stroke-width="24" stroke-linecap="round" stroke-linejoin="round"/>
  </g>
</svg>
